<?xml version="1.0" standalone="no"?>
<!DOCTYPE svg PUBLIC "-//W3C//DTD SVG 20010904//EN"
 "http://www.w3.org/TR/2001/REC-SVG-20010904/DTD/svg10.dtd">
<svg version="1.0" xmlns="http://www.w3.org/2000/svg"
 width="1000.000000pt" height="1000.000000pt" viewBox="0 0 1000.000000 1000.000000"
 preserveAspectRatio="xMidYMid meet">
<metadata>
Created by potrace 1.14, written by Peter Selinger 2001-2017
</metadata>
<g transform="translate(0.000000,1000.000000) scale(0.100000,-0.100000)"
fill="#000000" stroke="none">
<path d="M2305 9993 c-769 -65 -1455 -468 -1880 -1103 -220 -329 -342 -653
-407 -1080 -19 -125 -19 -5495 0 -5620 65 -427 187 -751 407 -1080 366 -547
943 -934 1575 -1059 247 -48 109 -46 3000 -46 2891 0 2753 -2 3000 46 632 125
1209 512 1575 1059 220 329 342 653 407 1080 19 125 19 5495 0 5620 -75 493
-241 886 -526 1244 -359 452 -889 780 -1436 891 -255 52 -48 48 -2965 50
-1490 1 -2728 0 -2750 -2z m5955 -1213 c52 -14 109 -67 136 -124 23 -50 24
-58 24 -337 l0 -285 -25 -51 c-30 -60 -78 -100 -143 -119 -68 -21 -6436 -21
-6504 0 -65 19 -113 59 -143 119 l-25 51 0 285 c0 279 1 287 24 337 25 55 83
109 131 123 43 13 6480 14 6525 1z m-3395 -2227 c51 -27 89 -67 112 -118 15
-34 18 -76 21 -297 2 -164 -1 -277 -8 -311 -15 -72 -58 -129 -122 -161 l-52
-26 -1520 0 c-1056 0 -1533 3 -1560 11 -51 14 -128 91 -144 145 -19 64 -17
583 3 630 30 73 84 121 154 140 36 10 377 12 1561 11 l1515 -2 40 -22z m3399
-2204 c51 -14 128 -91 144 -145 8 -28 12 -129 12 -320 0 -250 -2 -283 -19
-320 -24 -52 -83 -109 -130 -126 -53 -19 -6489 -19 -6542 0 -47 17 -106 74
-130 126 -17 37 -19 70 -19 320 0 191 4 292 12 320 15 51 93 131 139 145 50
14 6482 14 6533 0z m-3399 -2226 c51 -27 89 -67 112 -118 15 -34 18 -76 21
-298 2 -160 -1 -277 -7 -308 -16 -73 -60 -132 -123 -163 l-52 -26 -1520 0
c-956 0 -1534 4 -1556 10 -52 14 -109 67 -136 124 -23 50 -24 58 -24 337 l0
285 25 51 c29 58 78 100 139 119 33 10 337 12 1561 11 l1520 -2 40 -22z"/>
</g>
</svg>
